<?xml version="1.0" standalone="no"?>
<!DOCTYPE svg PUBLIC "-//W3C//DTD SVG 20010904//EN"
 "http://www.w3.org/TR/2001/REC-SVG-20010904/DTD/svg10.dtd">
<svg version="1.0" xmlns="http://www.w3.org/2000/svg"
 width="157.000000pt" height="130.000000pt" viewBox="0 0 157.000000 130.000000"
 preserveAspectRatio="xMidYMid meet">

<g transform="translate(0.000000,130.000000) scale(0.100000,-0.100000)"
fill="#000000" stroke="none">
<path d="M454 1113 c-32 -38 -71 -83 -86 -101 l-28 -33 0 -174 0 -174 216
-260 c118 -142 222 -262 230 -265 8 -3 21 -3 29 0 8 4 112 122 230 264 l215
258 0 177 0 177 -82 99 c-94 113 -113 121 -164 68 -51 -55 -203 -189 -214
-189 -6 0 -63 50 -127 110 -76 71 -125 110 -139 110 -15 0 -41 -22 -80 -67z"/>
</g>
</svg>
